<?xml version="1.0" encoding="utf-8"?>
<!-- Generator: Adobe Illustrator 16.0.0, SVG Export Plug-In . SVG Version: 6.00 Build 0)  -->
<!DOCTYPE svg PUBLIC "-//W3C//DTD SVG 1.1//EN" "http://www.w3.org/Graphics/SVG/1.1/DTD/svg11.dtd">
<svg version="1.1" id="Layer_1" focusable="false" xmlns="http://www.w3.org/2000/svg" xmlns:xlink="http://www.w3.org/1999/xlink"
	 x="0px" y="0px" width="612px" height="792px" viewBox="0 0 612 792" enable-background="new 0 0 612 792" xml:space="preserve">
<path d="M546.429,90H65.571C29.357,90,0,119.357,0,155.571v480.857C0,672.644,29.357,702,65.571,702h480.857
	C582.644,702,612,672.644,612,636.429V155.571C612,119.357,582.644,90,546.429,90z M243.32,404.338
	c-123.886-89.91-122.624-90.137-155.892-116.029v-34.38c0-18.107,14.678-32.786,32.786-32.786h371.572
	c18.106,0,32.785,14.679,32.785,32.786v34.38c-33.292,25.913-32.013,26.125-155.892,116.031
	c-14.344,10.457-42.884,35.682-62.68,35.373C286.188,440.011,257.686,414.813,243.32,404.338z M524.571,343.782v194.29
	c0,18.107-14.679,32.786-32.785,32.786H120.214c-18.107,0-32.786-14.679-32.786-32.786v-194.29
	c19.067,14.746,45.53,34.474,130.19,95.917c19.347,14.127,51.877,43.912,88.377,43.728c36.729,0.184,69.72-30.109,88.412-43.748
	C479.047,378.253,505.504,358.526,524.571,343.782z"/>
</svg>
