<?xml version="1.0" encoding="utf-8"?>
<!-- Generator: Adobe Illustrator 16.0.0, SVG Export Plug-In . SVG Version: 6.00 Build 0)  -->
<!DOCTYPE svg PUBLIC "-//W3C//DTD SVG 1.1//EN" "http://www.w3.org/Graphics/SVG/1.1/DTD/svg11.dtd">
<svg version="1.1" id="Layer_1" focusable="false" xmlns="http://www.w3.org/2000/svg" xmlns:xlink="http://www.w3.org/1999/xlink"
	 x="0px" y="0px" width="612px" height="792px" viewBox="0 0 612 792" enable-background="new 0 0 612 792" xml:space="preserve">
<path d="M479.25,0h-346.5C91.758,0,58.5,33.258,58.5,74.25v643.5c0,40.992,33.258,74.25,74.25,74.25h346.5
	c40.992,0,74.25-33.258,74.25-74.25V74.25C553.5,33.258,520.242,0,479.25,0z M306,742.5c-27.38,0-49.5-22.12-49.5-49.5
	s22.12-49.5,49.5-49.5s49.5,22.12,49.5,49.5S333.38,742.5,306,742.5z M479.25,575.438c0,10.209-8.354,18.563-18.563,18.563H151.313
	c-10.209,0-18.563-8.354-18.563-18.563V92.813c0-10.209,8.353-18.563,18.563-18.563h309.375c10.209,0,18.563,8.353,18.563,18.563
	V575.438z"/>
</svg>
